<?xml version="1.0" encoding="utf-8"?>
<!-- Generator: Adobe Illustrator 18.1.1, SVG Export Plug-In . SVG Version: 6.00 Build 0)  -->
<svg version="1.1" id="Layer_1" xmlns="http://www.w3.org/2000/svg" xmlns:xlink="http://www.w3.org/1999/xlink" x="0px" y="0px"
	 viewBox="0 0 99.8 81.6" enable-background="new 0 0 99.8 81.6" xml:space="preserve">
<g>
	<g>
		<path fill="#DD9D33" d="M82.1,46.1c-9.8,0-17.7,8-17.7,17.7c0,9.8,8,17.8,17.7,17.8s17.8-8,17.8-17.8
			C99.8,54.1,91.9,46.1,82.1,46.1z M89.1,73.7c0.1,0.3,0,0.6-0.3,0.8c-0.2,0.2-0.6,0.2-0.8,0l-6-4l-6,4c-0.2,0.2-0.6,0.2-0.8,0
			c-0.2-0.2-0.3-0.5-0.3-0.8l1.9-6.9l-5.6-4.5c-0.2-0.2-0.3-0.5-0.2-0.8c0.1-0.3,0.3-0.5,0.6-0.5l7.2-0.3l2.5-6.7
			c0.1-0.3,0.4-0.5,0.7-0.5c0.3,0,0.6,0.2,0.7,0.5l2.5,6.7l7.2,0.3c0.3,0,0.6,0.2,0.6,0.5c0.1,0.3,0,0.6-0.2,0.8l-5.6,4.5L89.1,73.7
			z"/>
		<path fill="#DD9D33" d="M3.3,0C1.5,0,0,1.5,0,3.3V64c0,1.8,1.5,3.3,3.3,3.3h58.2c-0.2-1.1-0.3-2.3-0.3-3.5c0-0.9,0.1-1.9,0.2-2.8
			H17.7c0-6.3-5.1-11.5-11.5-11.5V18c6.3,0,11.5-5.1,11.5-11.5c0-0.1,0-0.2,0-0.3h64.5c0,0.1,0,0.2,0,0.3c0,6.3,5.1,11.5,11.5,11.5
			c0,0,0.1,0,0.1,0v28.6c2.5,1.7,4.7,4,6.3,6.6V3.3c0-1.8-1.5-3.3-3.3-3.3L3.3,0L3.3,0z"/>
		<rect x="24.3" y="18.1" fill="#DD9D33" width="51.4" height="6.2"/>
		<rect x="24.3" y="30.5" fill="#DD9D33" width="51.4" height="6.2"/>
		<path fill="#DD9D33" d="M24.3,49.2h42.9c2.3-2.4,5.3-4.2,8.5-5.2v-1H24.3V49.2z"/>
	</g>
</g>
</svg>
