<?xml version="1.0" encoding="utf-8"?>
<!-- Generator: Adobe Illustrator 18.1.1, SVG Export Plug-In . SVG Version: 6.00 Build 0)  -->
<svg version="1.1" id="Layer_1" xmlns="http://www.w3.org/2000/svg" xmlns:xlink="http://www.w3.org/1999/xlink" x="0px" y="0px"
	 viewBox="0 0 304 58" enable-background="new 0 0 304 58" xml:space="preserve">
<g>
	<g>
		<path fill="#DD9D33" d="M94.4,15.2c-0.9-1.2-2.3-1.9-3.8-1.9c-1.6,0-3.1,0.8-4,2L77.5,28c-0.3,0.3-0.4,0.7-0.4,1.1
			c0,1,0.8,1.9,1.8,1.9c0.5,0,1-0.3,1.4-0.7l8.8-12.1c0.3-0.4,0.9-1,1.4-1c0.6,0,1.1,0.6,1.5,1l8.8,12.1c0.3,0.5,0.9,0.7,1.4,0.7
			c1,0,1.8-0.9,1.8-1.9c0-0.5-0.2-1-0.5-1.3L94.4,15.2z"/>
		<path fill="#DD9D33" d="M90.6,24.4c-1.3,0-2.3,1.1-2.3,2.4c0,1.3,1,2.4,2.3,2.4c1.3,0,2.3-1.1,2.3-2.4
			C92.9,25.5,91.9,24.4,90.6,24.4z"/>
		<path fill="#DD9D33" d="M134.7,27.3h-22.6c-0.8,0-1.4-0.7-1.4-1.4V16c0-1-0.9-1.9-1.8-1.9c-1,0-1.8,0.9-1.8,1.9v9.9
			c0,2.9,2.4,5.2,5.2,5.2h22.5c1,0,1.8-0.9,1.8-1.9C136.5,28.1,135.7,27.3,134.7,27.3z"/>
		<path fill="#DD9D33" d="M147.2,17.8h21.1c1,0,1.8-0.9,1.8-1.9c0-1-0.8-1.9-1.8-1.9h-21.9c-4.3,0-6.9,4.5-6.9,8.5
			c0,3.8,2.4,8.5,6.5,8.5h22.3c1,0,1.8-0.9,1.8-1.9c0-1-0.8-1.9-1.8-1.9h-21.1c-3.5,0-4.2-2.9-4.2-4.7S143.8,17.8,147.2,17.8z"/>
		<path fill="#DD9D33" d="M200.9,14.1c-1,0-1.8,0.9-1.8,1.9v4.7h-22.2V16c0-1-0.8-1.9-1.8-1.9c-1,0-1.8,0.9-1.8,1.9v13.2
			c0,1,0.8,1.9,1.8,1.9c1,0,1.8-0.9,1.8-1.9v-4.7H199v4.7c0,1,0.8,1.9,1.8,1.9c1,0,1.8-0.9,1.8-1.9V16
			C202.7,15,201.8,14.1,200.9,14.1z"/>
		<path fill="#DD9D33" d="M232.6,20.7h-18.7c-1,0-1.8,0.9-1.8,1.9c0,1,0.8,1.9,1.8,1.9h18.7c1,0,1.8-0.9,1.8-1.9
			C234.4,21.6,233.6,20.7,232.6,20.7z"/>
		<path fill="#DD9D33" d="M236,16c0-1-0.8-1.9-1.8-1.9h-21.6c-4.3,0-6.9,4.5-6.9,8.5c0,3.8,2.4,8.5,6.5,8.5h21.9
			c1,0,1.8-0.9,1.8-1.9c0-1-0.8-1.9-1.8-1.9h-20.7c-3.5,0-4.2-2.9-4.2-4.7s0.8-4.7,4.2-4.7h20.7C235.1,17.8,236,17,236,16z"/>
		<path fill="#DD9D33" d="M267.5,14.1c-1.2,0-2.3,0.6-2.9,1.6h0l-8.6,10.2c-0.2,0.3-0.7,0.6-1.1,0.6c-0.4,0-0.8-0.4-1.1-0.6
			l-8.7-10.2c-0.8-0.9-1.7-1.6-2.9-1.6c-2,0-3.2,1.7-3.2,3.7v11.3c0,1,0.8,1.9,1.8,1.9c1,0,1.8-0.9,1.8-1.9v-8.5
			c0-1.1,0-1.6,0.2-1.6c0.2,0,0.5,0.4,1.1,1l8.3,9.7c0.6,0.8,1.7,1.2,2.7,1.2c1.1,0,2.1-0.4,2.7-1.2l8.3-9.7c0.6-0.7,0.9-1,1.1-1
			c0.2,0,0.2,0.5,0.2,1.6v8.5c0,1,0.8,1.9,1.8,1.9c1,0,1.8-0.9,1.8-1.9V17.8C270.7,15.8,269.5,14.1,267.5,14.1z"/>
		<path fill="#DD9D33" d="M302.2,14.1c-0.5,0-0.9,0.2-1.3,0.5c-6.5,5.9-8.1,6.2-12,6.2c-3.9,0-5.6-0.4-12.1-6.2
			c-0.4-0.3-0.8-0.5-1.3-0.5c-1,0-1.8,0.9-1.8,1.9c0,0.6,0.3,1.1,0.7,1.5c6.4,5.8,9.3,7.4,14.4,7.4c4.8,0,8.1-1.6,14.4-7.4
			c0.4-0.3,0.7-0.9,0.7-1.5C304,15,303.2,14.1,302.2,14.1z"/>
		<path fill="#DD9D33" d="M288.9,26.7c-1.3,0-2.3,1.1-2.3,2.4c0,1.3,1.1,2.4,2.3,2.4c1.3,0,2.3-1.1,2.3-2.4
			C291.2,27.8,290.2,26.7,288.9,26.7z"/>
	</g>
	<g>
		<path fill="#606161" d="M87,41.4v4.7h-7.1c-3.1,0-4.3-1.5-4.3-4.5c0-3,1.2-4.5,4.3-4.5h7v1.4h-7c-2.3,0-2.8,1.1-2.8,3.1
			c0,2.1,0.5,3.1,2.8,3.1h5.7v-3.3H87z"/>
		<path fill="#606161" d="M93.2,37.1v5.4c0,1.7,0.7,2.2,2.8,2.2h5.9v1.4H96c-2.9,0-4.3-1-4.3-3.6v-5.4H93.2z"/>
		<path fill="#606161" d="M117.9,41.6c0,3.6-2.1,4.6-6.3,4.6c-4.1,0-6.3-1-6.3-4.6c0-3.6,2.1-4.6,6.3-4.6
			C115.7,36.9,117.9,38,117.9,41.6z M116.4,41.6c0-2.8-1.6-3.3-4.8-3.3c-3.1,0-4.8,0.4-4.8,3.3c0,2.8,1.6,3.3,4.8,3.3
			C114.7,44.8,116.4,44.4,116.4,41.6z"/>
		<path fill="#606161" d="M132,41.5c1.3,0.3,1.8,1.2,1.8,2.2c0,1.3-0.9,2.4-3.3,2.4h-8v-9h7.8c2.9,0,3.3,1.5,3.3,2.4
			C133.6,40.5,133,41.2,132,41.5z M130.5,40.8c1.1,0,1.7-0.4,1.7-1.2c0-0.8-0.5-1.3-1.7-1.3h-6.6v2.5H130.5z M123.9,42.1v2.7h6.7
			c1.4,0,1.7-0.7,1.7-1.3c0-0.7-0.4-1.4-1.7-1.4H123.9z"/>
		<path fill="#606161" d="M149.9,46.1h-1.6l-1.2-2.5h-7.1l-1.2,2.5h-1.6l3.6-7.2c0.6-1.2,1.3-1.9,2.7-1.9c1.4,0,2.1,0.7,2.7,1.9
			L149.9,46.1z M144.9,39.1c-0.3-0.6-0.6-0.9-1.3-0.9c-0.6,0-1,0.3-1.3,0.9l-1.6,3.2h5.7L144.9,39.1z"/>
		<path fill="#606161" d="M155,37.1v5.4c0,1.7,0.7,2.2,2.8,2.2h5.9v1.4h-5.9c-2.9,0-4.3-1-4.3-3.6v-5.4H155z"/>
		<path fill="#606161" d="M175.7,46.1h-1.5v-9h1.1c2.3,0,2.9,0.8,5.3,4.1c2.3,3.1,2.6,3.5,3.7,3.5h0.1v-7.6h1.5v9h-1.1
			c-2.1,0-2.8-0.7-5.3-4.1c-2.4-3.2-2.6-3.5-3.8-3.5h-0.1V46.1z"/>
		<path fill="#606161" d="M195,38.4c-2,0-2.7,0.8-2.8,2.5h9.7v1.3h-9.7c0.1,1.6,0.8,2.5,2.8,2.5h7.1v1.4H195c-3.1,0-4.3-1.5-4.3-4.5
			c0-3,1.2-4.5,4.3-4.5h7.1v1.4H195z"/>
		<path fill="#606161" d="M210.5,46.1v-7.7h-4.6v-1.3h10.8v1.3h-4.7v7.7H210.5z"/>
		<path fill="#606161" d="M238.1,37.1l-3.3,7.4c-0.6,1.5-1.7,1.8-2.6,1.8c-1.1,0-2-0.5-2.5-1.6L229,43l-0.8,1.6
			c-0.6,1.1-1.5,1.6-2.5,1.6c-0.9,0-1.9-0.3-2.6-1.8l-3.3-7.4h1.5l3,6.8c0.3,0.8,0.7,0.9,1.2,0.9c0.6,0,1-0.3,1.3-0.9l1.3-2.6
			l-2.1-4.3h1.5L229,40l1.4-2.9h1.5l-2.1,4.3L231,44c0.3,0.6,0.6,0.9,1.3,0.9c0.5,0,0.9-0.2,1.3-0.9l3-6.8H238.1z"/>
		<path fill="#606161" d="M254,41.6c0,3.6-2.1,4.6-6.3,4.6c-4.1,0-6.3-1-6.3-4.6c0-3.6,2.1-4.6,6.3-4.6C251.9,36.9,254,38,254,41.6z
			 M252.5,41.6c0-2.8-1.6-3.3-4.8-3.3c-3.1,0-4.8,0.4-4.8,3.3c0,2.8,1.6,3.3,4.8,3.3C250.9,44.8,252.5,44.4,252.5,41.6z"/>
		<path fill="#606161" d="M258.6,37.1h7.8c2.2,0,3.4,1.1,3.4,2.8c0,1.3-0.7,2.1-1.9,2.4c1.2,0.3,1.7,1.1,1.7,2.1v1.7h-1.5v-1.8
			c0-0.7-0.5-1.4-1.7-1.4h-6.3v3.2h-1.5V37.1z M266.5,41.6c1.4,0,1.8-0.9,1.8-1.6c0-0.7-0.4-1.6-1.8-1.6h-6.4v3.3H266.5z"/>
		<path fill="#606161" d="M283.6,46.1l-2-2.6c-0.4-0.4-1.1-1.3-2-1.3h-3.6v3.9h-1.5v-9h1.5v3.8h3.4c0.9,0,1.7-0.8,2.1-1.2l1.9-2.5
			h1.9l-2.6,3.2c-0.4,0.5-0.9,1-1.6,1.2c0.8,0.2,1.3,0.8,1.8,1.3l2.7,3.3H283.6z"/>
		<path fill="#606161" d="M297,44.8c1.3,0,1.8-0.4,1.8-1.2c0-0.8-0.6-1.2-2.1-1.3l-4.4-0.4c-2-0.2-3.1-0.9-3.1-2.5
			c0-1.8,1.4-2.4,3.2-2.4h7.3v1.3h-7.4c-1,0-1.6,0.3-1.6,1.1c0,0.7,0.5,1.1,2,1.2l4.3,0.3c2.1,0.2,3.4,0.8,3.4,2.6
			c0,1.5-1,2.5-3.4,2.5H289v-1.3H297z"/>
	</g>
	<polygon fill="#DD9D33" points="35,38.2 36.5,35.4 39.7,40.8 39.7,40.8 42.8,46.2 49.1,46.2 46.3,41.3 46.1,41 36.5,24.6 
		28.6,38.2 	"/>
	<polygon fill="#DD9D33" points="45.9,46.2 49.1,46.2 46.3,41.3 46.1,41 36.5,24.6 28.6,38.2 31.8,38.2 36.5,30.2 	"/>
	<polygon fill="#828282" points="36.2,40.8 23.5,40.8 33.5,23.5 34.8,21.4 31.7,16 23.7,29.8 14.2,46.2 39.2,46.2 	"/>
	<polygon fill="#828282" points="18.9,43.5 28.3,27.1 33.2,18.7 31.7,16 23.7,29.8 14.2,46.2 39.2,46.2 37.7,43.5 	"/>
	<path fill="#DD9D33" d="M50.2,32.5c0.7-0.7,1.1-1.7,1.1-2.8c0-2.3-1.9-4.2-4.2-4.2c-0.3,0-0.6,0-0.9,0.1L31.7,0.6L17.2,25.7
		c-0.3-0.1-0.6-0.1-0.9-0.1c-2.3,0-4.2,1.9-4.2,4.2c0,1.1,0.4,2,1.1,2.8L0.1,55.1h27.6c0.5,1.7,2.1,2.9,3.9,2.9
		c1.8,0,3.4-1.2,3.9-2.9h27.6L50.2,32.5z M47.1,27.7c1.1,0,2,0.9,2,2c0,1.1-0.9,2-2,2c-1.1,0-2-0.9-2-2C45,28.6,46,27.7,47.1,27.7
		 M16.3,27.7c1.1,0,2,0.9,2,2c0,1.1-0.9,2-2,2c-1.1,0-2-0.9-2-2C14.3,28.6,15.2,27.7,16.3,27.7 M31.7,55.8c-1.1,0-2-0.9-2-2
		c0-1.1,0.9-2,2-2c1.1,0,2,0.9,2,2C33.6,54.9,32.8,55.8,31.7,55.8 M31.7,49.7c-1.8,0-3.4,1.2-3.9,2.9H4.7l10.8-18.7
		c0.3,0.1,0.6,0.1,0.9,0.1c2.3,0,4.2-1.9,4.2-4.2c0-1.1-0.4-2-1.1-2.8L31.7,5.8L43.9,27c-0.6,0.7-1.1,1.7-1.1,2.7
		c0,2.3,1.9,4.2,4.2,4.2c0.3,0,0.6,0,0.8-0.1l10.8,18.7H35.6C35.1,50.9,33.5,49.7,31.7,49.7"/>
	<path fill="#DD9D33" d="M50.2,32.5c0.7-0.7,1.1-1.7,1.1-2.8c0-2.3-1.9-4.2-4.2-4.2c-0.3,0-0.6,0-0.9,0.1L31.7,0.6L17.2,25.7
		c-0.3-0.1-0.6-0.1-0.9-0.1c-2.3,0-4.2,1.9-4.2,4.2c0,1.1,0.4,2,1.1,2.8L0.1,55.1h27.6c0.5,1.7,2.1,2.9,3.9,2.9
		c1.8,0,3.4-1.2,3.9-2.9h27.6L50.2,32.5z M33.6,53.7c0,0.1,0,0.1,0,0.2c0,1.1-0.9,2-2,2c-1.1,0-2-0.9-2-2c0-0.1,0-0.1,0-0.2H2.7
		l12.8-22.1c-0.7-0.3-1.1-1-1.1-1.8c0-1.1,0.9-2,2-2c0.4,0,0.8,0.1,1.1,0.3L31.7,3.4l14.2,24.7c0.3-0.2,0.7-0.4,1.2-0.4
		c1.1,0,2,0.9,2,2c0,0.8-0.5,1.5-1.2,1.8l12.7,22.1H33.6z"/>
</g>
<g>
	<g>
		<linearGradient id="SVGID_1_" gradientUnits="userSpaceOnUse" x1="90.5984" y1="36.2303" x2="90.5984" y2="1.5541">
			<stop  offset="0" style="stop-color:#814321"/>
			<stop  offset="7.066982e-02" style="stop-color:#A2642A"/>
			<stop  offset="0.1419" style="stop-color:#C08030"/>
			<stop  offset="0.2042" style="stop-color:#D49432"/>
			<stop  offset="0.2503" style="stop-color:#DD9D33"/>
			<stop  offset="0.6124" style="stop-color:#ECAB47"/>
			<stop  offset="0.6992" style="stop-color:#E7A645"/>
			<stop  offset="0.7553" style="stop-color:#DB9A41"/>
			<stop  offset="0.8027" style="stop-color:#CA893B"/>
			<stop  offset="0.8452" style="stop-color:#B37334"/>
			<stop  offset="0.8842" style="stop-color:#985A2A"/>
			<stop  offset="0.9133" style="stop-color:#814321"/>
		</linearGradient>
		<path fill="url(#SVGID_1_)" d="M94.4,15.2c-0.9-1.2-2.3-1.9-3.8-1.9c-1.6,0-3.1,0.8-4,2L77.5,28c-0.3,0.3-0.4,0.7-0.4,1.1
			c0,1,0.8,1.9,1.8,1.9c0.5,0,1-0.3,1.4-0.7l8.8-12.1c0.3-0.4,0.9-1,1.4-1c0.6,0,1.1,0.6,1.5,1l8.8,12.1c0.3,0.5,0.9,0.7,1.4,0.7
			c1,0,1.8-0.9,1.8-1.9c0-0.5-0.2-1-0.5-1.3L94.4,15.2z"/>
		<linearGradient id="SVGID_2_" gradientUnits="userSpaceOnUse" x1="90.599" y1="36.2293" x2="90.599" y2="1.5576">
			<stop  offset="0" style="stop-color:#814321"/>
			<stop  offset="7.066982e-02" style="stop-color:#A2642A"/>
			<stop  offset="0.1419" style="stop-color:#C08030"/>
			<stop  offset="0.2042" style="stop-color:#D49432"/>
			<stop  offset="0.2503" style="stop-color:#DD9D33"/>
			<stop  offset="0.6124" style="stop-color:#ECAB47"/>
			<stop  offset="0.6992" style="stop-color:#E7A645"/>
			<stop  offset="0.7553" style="stop-color:#DB9A41"/>
			<stop  offset="0.8027" style="stop-color:#CA893B"/>
			<stop  offset="0.8452" style="stop-color:#B37334"/>
			<stop  offset="0.8842" style="stop-color:#985A2A"/>
			<stop  offset="0.9133" style="stop-color:#814321"/>
		</linearGradient>
		<path fill="url(#SVGID_2_)" d="M90.6,24.4c-1.3,0-2.3,1.1-2.3,2.4c0,1.3,1,2.4,2.3,2.4c1.3,0,2.3-1.1,2.3-2.4
			C92.9,25.5,91.9,24.4,90.6,24.4z"/>
		<linearGradient id="SVGID_3_" gradientUnits="userSpaceOnUse" x1="121.7923" y1="36.2307" x2="121.7923" y2="1.5519">
			<stop  offset="0" style="stop-color:#814321"/>
			<stop  offset="7.066982e-02" style="stop-color:#A2642A"/>
			<stop  offset="0.1419" style="stop-color:#C08030"/>
			<stop  offset="0.2042" style="stop-color:#D49432"/>
			<stop  offset="0.2503" style="stop-color:#DD9D33"/>
			<stop  offset="0.6124" style="stop-color:#ECAB47"/>
			<stop  offset="0.6992" style="stop-color:#E7A645"/>
			<stop  offset="0.7553" style="stop-color:#DB9A41"/>
			<stop  offset="0.8027" style="stop-color:#CA893B"/>
			<stop  offset="0.8452" style="stop-color:#B37334"/>
			<stop  offset="0.8842" style="stop-color:#985A2A"/>
			<stop  offset="0.9133" style="stop-color:#814321"/>
		</linearGradient>
		<path fill="url(#SVGID_3_)" d="M134.7,27.3h-22.6c-0.8,0-1.4-0.7-1.4-1.4V16c0-1-0.9-1.9-1.8-1.9c-1,0-1.8,0.9-1.8,1.9v9.9
			c0,2.9,2.4,5.2,5.2,5.2h22.5c1,0,1.8-0.9,1.8-1.9C136.5,28.1,135.7,27.3,134.7,27.3z"/>
		<linearGradient id="SVGID_4_" gradientUnits="userSpaceOnUse" x1="154.8513" y1="36.2307" x2="154.8513" y2="1.5519">
			<stop  offset="0" style="stop-color:#814321"/>
			<stop  offset="7.066982e-02" style="stop-color:#A2642A"/>
			<stop  offset="0.1419" style="stop-color:#C08030"/>
			<stop  offset="0.2042" style="stop-color:#D49432"/>
			<stop  offset="0.2503" style="stop-color:#DD9D33"/>
			<stop  offset="0.6124" style="stop-color:#ECAB47"/>
			<stop  offset="0.6992" style="stop-color:#E7A645"/>
			<stop  offset="0.7553" style="stop-color:#DB9A41"/>
			<stop  offset="0.8027" style="stop-color:#CA893B"/>
			<stop  offset="0.8452" style="stop-color:#B37334"/>
			<stop  offset="0.8842" style="stop-color:#985A2A"/>
			<stop  offset="0.9133" style="stop-color:#814321"/>
		</linearGradient>
		<path fill="url(#SVGID_4_)" d="M147.2,17.8h21.1c1,0,1.8-0.9,1.8-1.9c0-1-0.8-1.9-1.8-1.9h-21.9c-4.3,0-6.9,4.5-6.9,8.5
			c0,3.8,2.4,8.5,6.5,8.5h22.3c1,0,1.8-0.9,1.8-1.9c0-1-0.8-1.9-1.8-1.9h-21.1c-3.5,0-4.2-2.9-4.2-4.7S143.8,17.8,147.2,17.8z"/>
		<linearGradient id="SVGID_5_" gradientUnits="userSpaceOnUse" x1="187.9298" y1="36.2307" x2="187.9298" y2="1.5519">
			<stop  offset="0" style="stop-color:#814321"/>
			<stop  offset="7.066982e-02" style="stop-color:#A2642A"/>
			<stop  offset="0.1419" style="stop-color:#C08030"/>
			<stop  offset="0.2042" style="stop-color:#D49432"/>
			<stop  offset="0.2503" style="stop-color:#DD9D33"/>
			<stop  offset="0.6124" style="stop-color:#ECAB47"/>
			<stop  offset="0.6992" style="stop-color:#E7A645"/>
			<stop  offset="0.7553" style="stop-color:#DB9A41"/>
			<stop  offset="0.8027" style="stop-color:#CA893B"/>
			<stop  offset="0.8452" style="stop-color:#B37334"/>
			<stop  offset="0.8842" style="stop-color:#985A2A"/>
			<stop  offset="0.9133" style="stop-color:#814321"/>
		</linearGradient>
		<path fill="url(#SVGID_5_)" d="M200.9,14.1c-1,0-1.8,0.9-1.8,1.9v4.7h-22.2V16c0-1-0.8-1.9-1.8-1.9c-1,0-1.8,0.9-1.8,1.9v13.2
			c0,1,0.8,1.9,1.8,1.9c1,0,1.8-0.9,1.8-1.9v-4.7H199v4.7c0,1,0.8,1.9,1.8,1.9c1,0,1.8-0.9,1.8-1.9V16
			C202.7,15,201.8,14.1,200.9,14.1z"/>
		<linearGradient id="SVGID_6_" gradientUnits="userSpaceOnUse" x1="223.2073" y1="36.2317" x2="223.2073" y2="1.553">
			<stop  offset="0" style="stop-color:#814321"/>
			<stop  offset="7.066982e-02" style="stop-color:#A2642A"/>
			<stop  offset="0.1419" style="stop-color:#C08030"/>
			<stop  offset="0.2042" style="stop-color:#D49432"/>
			<stop  offset="0.2503" style="stop-color:#DD9D33"/>
			<stop  offset="0.6124" style="stop-color:#ECAB47"/>
			<stop  offset="0.6992" style="stop-color:#E7A645"/>
			<stop  offset="0.7553" style="stop-color:#DB9A41"/>
			<stop  offset="0.8027" style="stop-color:#CA893B"/>
			<stop  offset="0.8452" style="stop-color:#B37334"/>
			<stop  offset="0.8842" style="stop-color:#985A2A"/>
			<stop  offset="0.9133" style="stop-color:#814321"/>
		</linearGradient>
		<path fill="url(#SVGID_6_)" d="M232.6,20.7h-18.7c-1,0-1.8,0.9-1.8,1.9c0,1,0.8,1.9,1.8,1.9h18.7c1,0,1.8-0.9,1.8-1.9
			C234.4,21.6,233.6,20.7,232.6,20.7z"/>
		<linearGradient id="SVGID_7_" gradientUnits="userSpaceOnUse" x1="220.8186" y1="36.2307" x2="220.8186" y2="1.5519">
			<stop  offset="0" style="stop-color:#814321"/>
			<stop  offset="7.066982e-02" style="stop-color:#A2642A"/>
			<stop  offset="0.1419" style="stop-color:#C08030"/>
			<stop  offset="0.2042" style="stop-color:#D49432"/>
			<stop  offset="0.2503" style="stop-color:#DD9D33"/>
			<stop  offset="0.6124" style="stop-color:#ECAB47"/>
			<stop  offset="0.6992" style="stop-color:#E7A645"/>
			<stop  offset="0.7553" style="stop-color:#DB9A41"/>
			<stop  offset="0.8027" style="stop-color:#CA893B"/>
			<stop  offset="0.8452" style="stop-color:#B37334"/>
			<stop  offset="0.8842" style="stop-color:#985A2A"/>
			<stop  offset="0.9133" style="stop-color:#814321"/>
		</linearGradient>
		<path fill="url(#SVGID_7_)" d="M236,16c0-1-0.8-1.9-1.8-1.9h-21.6c-4.3,0-6.9,4.5-6.9,8.5c0,3.8,2.4,8.5,6.5,8.5h21.9
			c1,0,1.8-0.9,1.8-1.9c0-1-0.8-1.9-1.8-1.9h-20.7c-3.5,0-4.2-2.9-4.2-4.7s0.8-4.7,4.2-4.7h20.7C235.1,17.8,236,17,236,16z"/>
		<linearGradient id="SVGID_8_" gradientUnits="userSpaceOnUse" x1="254.8556" y1="36.2307" x2="254.8556" y2="1.5519">
			<stop  offset="0" style="stop-color:#814321"/>
			<stop  offset="7.066982e-02" style="stop-color:#A2642A"/>
			<stop  offset="0.1419" style="stop-color:#C08030"/>
			<stop  offset="0.2042" style="stop-color:#D49432"/>
			<stop  offset="0.2503" style="stop-color:#DD9D33"/>
			<stop  offset="0.6124" style="stop-color:#ECAB47"/>
			<stop  offset="0.6992" style="stop-color:#E7A645"/>
			<stop  offset="0.7553" style="stop-color:#DB9A41"/>
			<stop  offset="0.8027" style="stop-color:#CA893B"/>
			<stop  offset="0.8452" style="stop-color:#B37334"/>
			<stop  offset="0.8842" style="stop-color:#985A2A"/>
			<stop  offset="0.9133" style="stop-color:#814321"/>
		</linearGradient>
		<path fill="url(#SVGID_8_)" d="M267.5,14.1c-1.2,0-2.3,0.6-2.9,1.6h0l-8.6,10.2c-0.2,0.3-0.7,0.6-1.1,0.6c-0.4,0-0.8-0.4-1.1-0.6
			l-8.7-10.2c-0.8-0.9-1.7-1.6-2.9-1.6c-2,0-3.2,1.7-3.2,3.7v11.3c0,1,0.8,1.9,1.8,1.9c1,0,1.8-0.9,1.8-1.9v-8.5
			c0-1.1,0-1.6,0.2-1.6c0.2,0,0.5,0.4,1.1,1l8.3,9.7c0.6,0.8,1.7,1.2,2.7,1.2c1.1,0,2.1-0.4,2.7-1.2l8.3-9.7c0.6-0.7,0.9-1,1.1-1
			c0.2,0,0.2,0.5,0.2,1.6v8.5c0,1,0.8,1.9,1.8,1.9c1,0,1.8-0.9,1.8-1.9V17.8C270.7,15.8,269.5,14.1,267.5,14.1z"/>
		<linearGradient id="SVGID_9_" gradientUnits="userSpaceOnUse" x1="288.8758" y1="36.2297" x2="288.8758" y2="1.5524">
			<stop  offset="0" style="stop-color:#814321"/>
			<stop  offset="7.066982e-02" style="stop-color:#A2642A"/>
			<stop  offset="0.1419" style="stop-color:#C08030"/>
			<stop  offset="0.2042" style="stop-color:#D49432"/>
			<stop  offset="0.2503" style="stop-color:#DD9D33"/>
			<stop  offset="0.6124" style="stop-color:#ECAB47"/>
			<stop  offset="0.6992" style="stop-color:#E7A645"/>
			<stop  offset="0.7553" style="stop-color:#DB9A41"/>
			<stop  offset="0.8027" style="stop-color:#CA893B"/>
			<stop  offset="0.8452" style="stop-color:#B37334"/>
			<stop  offset="0.8842" style="stop-color:#985A2A"/>
			<stop  offset="0.9133" style="stop-color:#814321"/>
		</linearGradient>
		<path fill="url(#SVGID_9_)" d="M302.2,14.1c-0.5,0-0.9,0.2-1.3,0.5c-6.5,5.9-8.1,6.2-12,6.2c-3.9,0-5.6-0.4-12.1-6.2
			c-0.4-0.3-0.8-0.5-1.3-0.5c-1,0-1.8,0.9-1.8,1.9c0,0.6,0.3,1.1,0.7,1.5c6.4,5.8,9.3,7.4,14.4,7.4c4.8,0,8.1-1.6,14.4-7.4
			c0.4-0.3,0.7-0.9,0.7-1.5C304,15,303.2,14.1,302.2,14.1z"/>
		<linearGradient id="SVGID_10_" gradientUnits="userSpaceOnUse" x1="288.9123" y1="36.2285" x2="288.9123" y2="1.5604">
			<stop  offset="0" style="stop-color:#814321"/>
			<stop  offset="7.066982e-02" style="stop-color:#A2642A"/>
			<stop  offset="0.1419" style="stop-color:#C08030"/>
			<stop  offset="0.2042" style="stop-color:#D49432"/>
			<stop  offset="0.2503" style="stop-color:#DD9D33"/>
			<stop  offset="0.6124" style="stop-color:#ECAB47"/>
			<stop  offset="0.6992" style="stop-color:#E7A645"/>
			<stop  offset="0.7553" style="stop-color:#DB9A41"/>
			<stop  offset="0.8027" style="stop-color:#CA893B"/>
			<stop  offset="0.8452" style="stop-color:#B37334"/>
			<stop  offset="0.8842" style="stop-color:#985A2A"/>
			<stop  offset="0.9133" style="stop-color:#814321"/>
		</linearGradient>
		<path fill="url(#SVGID_10_)" d="M288.9,26.7c-1.3,0-2.3,1.1-2.3,2.4c0,1.3,1.1,2.4,2.3,2.4c1.3,0,2.3-1.1,2.3-2.4
			C291.2,27.8,290.2,26.7,288.9,26.7z"/>
	</g>
	<g>
		<path fill="#606161" d="M87,41.4v4.7h-7.1c-3.1,0-4.3-1.5-4.3-4.5c0-3,1.2-4.5,4.3-4.5h7v1.4h-7c-2.3,0-2.8,1.1-2.8,3.1
			c0,2.1,0.5,3.1,2.8,3.1h5.7v-3.3H87z"/>
		<path fill="#606161" d="M93.2,37.1v5.4c0,1.7,0.7,2.2,2.8,2.2h5.9v1.4H96c-2.9,0-4.3-1-4.3-3.6v-5.4H93.2z"/>
		<path fill="#606161" d="M117.9,41.6c0,3.6-2.1,4.6-6.3,4.6c-4.1,0-6.3-1-6.3-4.6c0-3.6,2.1-4.6,6.3-4.6
			C115.7,36.9,117.9,38,117.9,41.6z M116.4,41.6c0-2.8-1.6-3.3-4.8-3.3c-3.1,0-4.8,0.4-4.8,3.3c0,2.8,1.6,3.3,4.8,3.3
			C114.7,44.8,116.4,44.4,116.4,41.6z"/>
		<path fill="#606161" d="M132,41.5c1.3,0.3,1.8,1.2,1.8,2.2c0,1.3-0.9,2.4-3.3,2.4h-8v-9h7.8c2.9,0,3.3,1.5,3.3,2.4
			C133.6,40.5,133,41.2,132,41.5z M130.5,40.8c1.1,0,1.7-0.4,1.7-1.2c0-0.8-0.5-1.3-1.7-1.3h-6.6v2.5H130.5z M123.9,42.1v2.7h6.7
			c1.4,0,1.7-0.7,1.7-1.3c0-0.7-0.4-1.4-1.7-1.4H123.9z"/>
		<path fill="#606161" d="M149.9,46.1h-1.6l-1.2-2.5h-7.1l-1.2,2.5h-1.6l3.6-7.2c0.6-1.2,1.3-1.9,2.7-1.9c1.4,0,2.1,0.7,2.7,1.9
			L149.9,46.1z M144.9,39.1c-0.3-0.6-0.6-0.9-1.3-0.9c-0.6,0-1,0.3-1.3,0.9l-1.6,3.2h5.7L144.9,39.1z"/>
		<path fill="#606161" d="M155,37.1v5.4c0,1.7,0.7,2.2,2.8,2.2h5.9v1.4h-5.9c-2.9,0-4.3-1-4.3-3.6v-5.4H155z"/>
		<path fill="#606161" d="M175.7,46.1h-1.5v-9h1.1c2.3,0,2.9,0.8,5.3,4.1c2.3,3.1,2.6,3.5,3.7,3.5h0.1v-7.6h1.5v9h-1.1
			c-2.1,0-2.8-0.7-5.3-4.1c-2.4-3.2-2.6-3.5-3.8-3.5h-0.1V46.1z"/>
		<path fill="#606161" d="M195,38.4c-2,0-2.7,0.8-2.8,2.5h9.7v1.3h-9.7c0.1,1.6,0.8,2.5,2.8,2.5h7.1v1.4H195c-3.1,0-4.3-1.5-4.3-4.5
			c0-3,1.2-4.5,4.3-4.5h7.1v1.4H195z"/>
		<path fill="#606161" d="M210.5,46.1v-7.7h-4.6v-1.3h10.8v1.3h-4.7v7.7H210.5z"/>
		<path fill="#606161" d="M238.1,37.1l-3.3,7.4c-0.6,1.5-1.7,1.8-2.6,1.8c-1.1,0-2-0.5-2.5-1.6L229,43l-0.8,1.6
			c-0.6,1.1-1.5,1.6-2.5,1.6c-0.9,0-1.9-0.3-2.6-1.8l-3.3-7.4h1.5l3,6.8c0.3,0.8,0.7,0.9,1.2,0.9c0.6,0,1-0.3,1.3-0.9l1.3-2.6
			l-2.1-4.3h1.5L229,40l1.4-2.9h1.5l-2.1,4.3L231,44c0.3,0.6,0.6,0.9,1.3,0.9c0.5,0,0.9-0.2,1.3-0.9l3-6.8H238.1z"/>
		<path fill="#606161" d="M254,41.6c0,3.6-2.1,4.6-6.3,4.6c-4.1,0-6.3-1-6.3-4.6c0-3.6,2.1-4.6,6.3-4.6C251.9,36.9,254,38,254,41.6z
			 M252.5,41.6c0-2.8-1.6-3.3-4.8-3.3c-3.1,0-4.8,0.4-4.8,3.3c0,2.8,1.6,3.3,4.8,3.3C250.9,44.8,252.5,44.4,252.5,41.6z"/>
		<path fill="#606161" d="M258.6,37.1h7.8c2.2,0,3.4,1.1,3.4,2.8c0,1.3-0.7,2.1-1.9,2.4c1.2,0.3,1.7,1.1,1.7,2.1v1.7h-1.5v-1.8
			c0-0.7-0.5-1.4-1.7-1.4h-6.3v3.2h-1.5V37.1z M266.5,41.6c1.4,0,1.8-0.9,1.8-1.6c0-0.7-0.4-1.6-1.8-1.6h-6.4v3.3H266.5z"/>
		<path fill="#606161" d="M283.6,46.1l-2-2.6c-0.4-0.4-1.1-1.3-2-1.3h-3.6v3.9h-1.5v-9h1.5v3.8h3.4c0.9,0,1.7-0.8,2.1-1.2l1.9-2.5
			h1.9l-2.6,3.2c-0.4,0.5-0.9,1-1.6,1.2c0.8,0.2,1.3,0.8,1.8,1.3l2.7,3.3H283.6z"/>
		<path fill="#606161" d="M297,44.8c1.3,0,1.8-0.4,1.8-1.2c0-0.8-0.6-1.2-2.1-1.3l-4.4-0.4c-2-0.2-3.1-0.9-3.1-2.5
			c0-1.8,1.4-2.4,3.2-2.4h7.3v1.3h-7.4c-1,0-1.6,0.3-1.6,1.1c0,0.7,0.5,1.1,2,1.2l4.3,0.3c2.1,0.2,3.4,0.8,3.4,2.6
			c0,1.5-1,2.5-3.4,2.5H289v-1.3H297z"/>
	</g>
	<linearGradient id="SVGID_11_" gradientUnits="userSpaceOnUse" x1="52.2775" y1="67.5959" x2="17.1488" y2="-2.747082e-02">
		<stop  offset="0" style="stop-color:#814321"/>
		<stop  offset="0.3065" style="stop-color:#DD9D33"/>
		<stop  offset="0.6129" style="stop-color:#F7D293"/>
		<stop  offset="0.9032" style="stop-color:#ECAB47"/>
	</linearGradient>
	<polygon fill="url(#SVGID_11_)" points="35.5,39.3 37.2,36 41,42.3 40.9,42.3 44.4,48.5 51.8,48.5 48.5,42.9 48.3,42.5 37.2,23.6 
		28.2,39.3 	"/>
	<linearGradient id="SVGID_12_" gradientUnits="userSpaceOnUse" x1="44.2834" y1="49.5264" x2="27.4865" y2="23.3429">
		<stop  offset="0" style="stop-color:#814321"/>
		<stop  offset="0.3065" style="stop-color:#DD9D33"/>
		<stop  offset="0.6129" style="stop-color:#F7D293"/>
		<stop  offset="0.9032" style="stop-color:#ECAB47"/>
	</linearGradient>
	<polygon fill="url(#SVGID_12_)" points="48,48.5 51.8,48.5 48.5,42.9 48.3,42.5 37.2,23.6 28.2,39.3 31.9,39.3 37.2,30 	"/>
	<linearGradient id="SVGID_13_" gradientUnits="userSpaceOnUse" x1="25.9883" y1="15.7079" x2="25.9883" y2="48.1602">
		<stop  offset="0" style="stop-color:#FFFFFF"/>
		<stop  offset="1.299749e-02" style="stop-color:#EBEAEA"/>
		<stop  offset="3.899447e-02" style="stop-color:#D1D0D1"/>
		<stop  offset="6.874688e-02" style="stop-color:#BDBDBF"/>
		<stop  offset="0.1033" style="stop-color:#AEAFB2"/>
		<stop  offset="0.1459" style="stop-color:#A5A6A9"/>
		<stop  offset="0.2049" style="stop-color:#9FA1A4"/>
		<stop  offset="0.3622" style="stop-color:#9D9FA2"/>
	</linearGradient>
	<polygon fill="url(#SVGID_13_)" points="36.9,42.3 22.3,42.3 33.8,22.4 35.3,20 31.7,13.7 22.5,29.6 11.6,48.5 40.4,48.5 	"/>
	<linearGradient id="SVGID_14_" gradientUnits="userSpaceOnUse" x1="11.5972" y1="31.1151" x2="40.3795" y2="31.1151">
		<stop  offset="2.551020e-02" style="stop-color:#9D9FA2"/>
		<stop  offset="0.9949" style="stop-color:#FFFFFF"/>
		<stop  offset="1" style="stop-color:#9D9FA2"/>
	</linearGradient>
	<polygon fill="url(#SVGID_14_)" points="16.9,45.4 27.8,26.5 33.4,16.8 31.7,13.7 22.5,29.6 11.6,48.5 40.4,48.5 38.6,45.4 	"/>
	<linearGradient id="SVGID_15_" gradientUnits="userSpaceOnUse" x1="41.8295" y1="73.0225" x2="6.7011" y2="5.3998">
		<stop  offset="0" style="stop-color:#814321"/>
		<stop  offset="0.3065" style="stop-color:#DD9D33"/>
		<stop  offset="0.6129" style="stop-color:#F7D293"/>
		<stop  offset="0.9032" style="stop-color:#ECAB47"/>
	</linearGradient>
	<path fill="url(#SVGID_15_)" d="M50.2,32.5c0.7-0.7,1.1-1.7,1.1-2.8c0-2.3-1.9-4.2-4.2-4.2c-0.3,0-0.6,0-0.9,0.1L31.7,0.6
		L17.2,25.7c-0.3-0.1-0.6-0.1-0.9-0.1c-2.3,0-4.2,1.9-4.2,4.2c0,1.1,0.4,2,1.1,2.8L0.1,55.1h27.6c0.5,1.7,2.1,2.9,3.9,2.9
		c1.8,0,3.4-1.2,3.9-2.9h27.6L50.2,32.5z M47.1,27.7c1.1,0,2,0.9,2,2c0,1.1-0.9,2-2,2c-1.1,0-2-0.9-2-2C45,28.6,46,27.7,47.1,27.7
		 M16.3,27.7c1.1,0,2,0.9,2,2c0,1.1-0.9,2-2,2c-1.1,0-2-0.9-2-2C14.3,28.6,15.2,27.7,16.3,27.7 M31.7,55.8c-1.1,0-2-0.9-2-2
		c0-1.1,0.9-2,2-2c1.1,0,2,0.9,2,2C33.6,54.9,32.8,55.8,31.7,55.8 M31.7,49.7c-1.8,0-3.4,1.2-3.9,2.9H4.7l10.8-18.7
		c0.3,0.1,0.6,0.1,0.9,0.1c2.3,0,4.2-1.9,4.2-4.2c0-1.1-0.4-2-1.1-2.8L31.7,5.8L43.9,27c-0.6,0.7-1.1,1.7-1.1,2.7
		c0,2.3,1.9,4.2,4.2,4.2c0.3,0,0.6,0,0.8-0.1l10.8,18.7H35.6C35.1,50.9,33.5,49.7,31.7,49.7"/>
	<linearGradient id="SVGID_16_" gradientUnits="userSpaceOnUse" x1="41.8294" y1="73.0225" x2="6.701" y2="5.3999">
		<stop  offset="9.677420e-02" style="stop-color:#ECAB47"/>
		<stop  offset="0.3871" style="stop-color:#F7D293"/>
		<stop  offset="0.6935" style="stop-color:#DD9D33"/>
		<stop  offset="1" style="stop-color:#814321"/>
	</linearGradient>
	<path fill="url(#SVGID_16_)" d="M50.2,32.5c0.7-0.7,1.1-1.7,1.1-2.8c0-2.3-1.9-4.2-4.2-4.2c-0.3,0-0.6,0-0.9,0.1L31.7,0.6
		L17.2,25.7c-0.3-0.1-0.6-0.1-0.9-0.1c-2.3,0-4.2,1.9-4.2,4.2c0,1.1,0.4,2,1.1,2.8L0.1,55.1h27.6c0.5,1.7,2.1,2.9,3.9,2.9
		c1.8,0,3.4-1.2,3.9-2.9h27.6L50.2,32.5z M33.6,53.7c0,0.1,0,0.1,0,0.2c0,1.1-0.9,2-2,2c-1.1,0-2-0.9-2-2c0-0.1,0-0.1,0-0.2H2.7
		l12.8-22.1c-0.7-0.3-1.1-1-1.1-1.8c0-1.1,0.9-2,2-2c0.4,0,0.8,0.1,1.1,0.3L31.7,3.4l14.2,24.7c0.3-0.2,0.7-0.4,1.2-0.4
		c1.1,0,2,0.9,2,2c0,0.8-0.5,1.5-1.2,1.8l12.7,22.1H33.6z"/>
</g>
</svg>
