<?xml version="1.0" encoding="utf-8"?>
<!-- Generator: Adobe Illustrator 18.1.1, SVG Export Plug-In . SVG Version: 6.00 Build 0)  -->
<svg version="1.1" id="Layer_1" xmlns="http://www.w3.org/2000/svg" xmlns:xlink="http://www.w3.org/1999/xlink" x="0px" y="0px"
	 viewBox="0 0 54 57" enable-background="new 0 0 54 57" xml:space="preserve">
<g>
	<g id="live-help">
		<path fill="#FFFFFF" d="M45.9,0.2H8.1c-3,0-5.4,2.4-5.4,5.4v37.7c0,3,2.4,5.4,5.4,5.4h10.8l8.1,8.1l8.1-8.1h10.8
			c3,0,5.4-2.4,5.4-5.4V5.6C51.3,2.6,48.8,0.2,45.9,0.2z M29.7,43.3h-5.4v-5.4h5.4V43.3z M35.4,22.6L32.9,25
			c-2.2,1.9-3.2,3.5-3.2,7.5h-5.4v-1.3c0-3,1.1-5.7,3.2-7.5l3.2-3.5c1.1-0.8,1.6-2.2,1.6-3.8c0-3-2.4-5.4-5.4-5.4s-5.4,2.4-5.4,5.4
			h-5.4c0-5.9,4.9-10.8,10.8-10.8s10.8,4.9,10.8,10.8C37.8,18.8,36.7,21,35.4,22.6z"/>
	</g>
</g>
</svg>
