<?xml version="1.0" encoding="utf-8"?>
<!-- Generator: Adobe Illustrator 18.1.1, SVG Export Plug-In . SVG Version: 6.00 Build 0)  -->
<svg version="1.1" id="Layer_1" xmlns="http://www.w3.org/2000/svg" xmlns:xlink="http://www.w3.org/1999/xlink" x="0px" y="0px"
	 viewBox="0 0 54 57" enable-background="new 0 0 54 57" xml:space="preserve">
<g>
	<g>
		<path fill="#FFFFFF" d="M51.4,52.5c-0.5-10.1-9.6-14.3-9.6-14.3c-2.2-1-6.1-3-8.7-4.3c3.3-3.6,4.3-9.5,4.4-10.4
			c0.7-3.8,0.3-8.5,0.3-8.5c-0.6-9.1-9.9-9.3-10.8-9.3c-0.1,0-0.1,0-0.1,0s0,0-0.1,0C26,5.7,16.7,5.8,16.1,15c0,0-0.3,4.7,0.3,8.5
			c0,0.2,0.2,0.9,0.4,1.8c1.7,2.3,4.4,3.4,6.6,3.9c0.3-0.3,0.7-0.4,1.1-0.4h4c0.8,0,1.5,0.7,1.5,1.5c0,0.9-0.7,1.5-1.5,1.5h-4
			c-0.6,0-1.2-0.4-1.4-0.9c-1.6-0.4-3.5-1.1-5.2-2.3c0.7,1.8,1.6,3.6,3,5.1c-2.6,1.3-6.5,3.3-8.7,4.3c0,0-9.1,4.2-9.6,14.3
			c0,0-0.2,1.7,3,2.3c0,0,9.8,2.2,21.4,2.2c11.7,0,21.4-2.2,21.4-2.2C51.6,54.1,51.4,52.5,51.4,52.5z"/>
		<path fill="#FFFFFF" d="M13,26.8h1V15.4c0,0,0-0.1,0-0.1v-1.7c0-3,0.9-5.4,2.8-7.2C20.5,2.7,26.9,2.7,27,2.7
			c0.1,0,6.5-0.1,10.3,3.6c1.8,1.8,2.8,4.2,2.8,7.3v1.8c0,0,0,0,0,0.1v11.3h1c2.4,0,4.3-1.9,4.3-4.3v-4.2c0-1.9-1.3-3.5-3-4.1v-0.6
			c0-3.7-1.2-6.7-3.5-8.9C34.4,0.3,27.3,0.4,27,0.4c-0.3,0-7.5-0.1-11.9,4.3c-2.3,2.2-3.5,5.2-3.5,8.9v0.6c-1.7,0.6-3,2.2-3,4.1v4.2
			C8.6,24.8,10.6,26.8,13,26.8z"/>
	</g>
</g>
</svg>
