<?xml version="1.0" encoding="utf-8"?>
<!-- Generator: Adobe Illustrator 18.1.1, SVG Export Plug-In . SVG Version: 6.00 Build 0)  -->
<svg version="1.1" id="Layer_1" xmlns="http://www.w3.org/2000/svg" xmlns:xlink="http://www.w3.org/1999/xlink" x="0px" y="0px"
	 viewBox="0 0 144 144" enable-background="new 0 0 144 144" xml:space="preserve">
<g>
	<polygon fill="#DD9D33" points="441.2,504.1 436.2,499.2 433.1,502.4 441.2,510.5 455.1,496.6 451.9,493.4 	"/>
	<path fill="#DD9D33" d="M426.1,408.6c-39.7,0-71.9,32.2-71.9,71.9s32.2,71.9,71.9,71.9c39.7,0,71.9-32.2,71.9-71.9
		S465.9,408.6,426.1,408.6z M392.6,512.2v-49l17.5-18.5h37.1v39.2c-0.9-0.1-1.8-0.2-2.7-0.2c-0.5,0-1,0-1.5,0.1v-34.8h-30.2v15.9
		h-15.9V508h31.5c0.7,1.5,1.5,2.9,2.6,4.2H392.6z M401.9,490.8v-4.8h33.7c-2,1.2-3.8,2.8-5.2,4.8H401.9z M427.8,495.9
		c-0.5,1.5-0.7,3.1-0.8,4.8h-25.1v-4.8H427.8z M401.9,481.4v-4.8h35.7v4.8H401.9z M444.5,516.4c-8.4,0-15.2-6.8-15.2-15.2
		s6.8-15.2,15.2-15.2c8.4,0,15.2,6.8,15.2,15.2S452.9,516.4,444.5,516.4z"/>
	<polygon fill="#DD9D33" points="408.5,452.4 400.8,460.6 408.5,460.6 	"/>
</g>
<g>
	<rect x="37.8" y="94.2" fill="#363636" width="6.8" height="6.8"/>
	<rect x="68.6" y="94.2" fill="#363636" width="6.8" height="6.8"/>
	<path fill="#363636" d="M72,0C32.2,0,0,32.2,0,72c0,39.8,32.2,72,72,72c39.8,0,72-32.2,72-72C144,32.2,111.8,0,72,0z M51.5,36.1h41
		v27.3h-41V36.1z M37.8,70.3h68.3V84h-6.8v-6.8H75.4V84h-6.8v-6.8H44.7V84h-6.8V70.3z M51.5,107.9H31V87.4h20.5V107.9z M82.2,107.9
		H61.8V87.4h20.5V107.9z M113,107.9H92.5V87.4H113V107.9z"/>
	<rect x="99.3" y="94.2" fill="#363636" width="6.8" height="6.8"/>
	<rect x="58.3" y="43" fill="#363636" width="27.3" height="13.7"/>
</g>
</svg>
