<?xml version="1.0" encoding="utf-8"?>
<!-- Generator: Adobe Illustrator 18.1.1, SVG Export Plug-In . SVG Version: 6.00 Build 0)  -->
<svg version="1.1" id="Layer_1" xmlns="http://www.w3.org/2000/svg" xmlns:xlink="http://www.w3.org/1999/xlink" x="0px" y="0px"
	 viewBox="0 0 144 144" enable-background="new 0 0 144 144" xml:space="preserve">
<g>
	<polygon fill="#DD9D33" points="441.2,504.1 436.2,499.2 433.1,502.4 441.2,510.5 455.1,496.6 451.9,493.4 	"/>
	<path fill="#DD9D33" d="M426.1,408.6c-39.7,0-71.9,32.2-71.9,71.9s32.2,71.9,71.9,71.9c39.7,0,71.9-32.2,71.9-71.9
		S465.9,408.6,426.1,408.6z M392.6,512.2v-49l17.5-18.5h37.1v39.2c-0.9-0.1-1.8-0.2-2.7-0.2c-0.5,0-1,0-1.5,0.1v-34.8h-30.2v15.9
		h-15.9V508h31.5c0.7,1.5,1.5,2.9,2.6,4.2H392.6z M401.9,490.8v-4.8h33.7c-2,1.2-3.8,2.8-5.2,4.8H401.9z M427.8,495.9
		c-0.5,1.5-0.7,3.1-0.8,4.8h-25.1v-4.8H427.8z M401.9,481.4v-4.8h35.7v4.8H401.9z M444.5,516.4c-8.4,0-15.2-6.8-15.2-15.2
		s6.8-15.2,15.2-15.2c8.4,0,15.2,6.8,15.2,15.2S452.9,516.4,444.5,516.4z"/>
	<polygon fill="#DD9D33" points="408.5,452.4 400.8,460.6 408.5,460.6 	"/>
</g>
<g>
	<polygon fill="#DD9D33" points="87,95.5 82,90.6 78.8,93.8 87,101.9 100.9,88 97.7,84.8 	"/>
	<path fill="#DD9D33" d="M71.9,0C32.2,0,0,32.2,0,71.9s32.2,71.9,71.9,71.9c39.7,0,71.9-32.2,71.9-71.9S111.6,0,71.9,0z M38.4,103.6
		v-49l17.5-18.5h37.1v39.2c-0.9-0.1-1.8-0.2-2.7-0.2c-0.5,0-1,0-1.5,0.1V40.3H58.5v15.9H42.6v43.1h31.5c0.7,1.5,1.5,2.9,2.6,4.2
		H38.4z M47.7,82.2v-4.8h33.7c-2,1.2-3.8,2.8-5.2,4.8H47.7z M73.5,87.3c-0.5,1.5-0.7,3.1-0.8,4.8H47.7v-4.8H73.5z M47.7,72.9v-4.8
		h35.7v4.8H47.7z M90.2,107.8c-8.4,0-15.2-6.8-15.2-15.2s6.8-15.2,15.2-15.2c8.4,0,15.2,6.8,15.2,15.2S98.6,107.8,90.2,107.8z"/>
	<polygon fill="#DD9D33" points="54.3,43.8 46.6,52 54.3,52 	"/>
</g>
</svg>
