<?xml version="1.0" encoding="utf-8"?>
<!-- Generator: Adobe Illustrator 18.1.1, SVG Export Plug-In . SVG Version: 6.00 Build 0)  -->
<svg version="1.1" id="Layer_1" xmlns="http://www.w3.org/2000/svg" xmlns:xlink="http://www.w3.org/1999/xlink" x="0px" y="0px"
	 viewBox="0 0 144 144" enable-background="new 0 0 144 144" xml:space="preserve">
<g>
	<polygon fill="#DD9D33" points="441.2,504.1 436.2,499.2 433.1,502.4 441.2,510.5 455.1,496.6 451.9,493.4 	"/>
	<path fill="#DD9D33" d="M426.1,408.6c-39.7,0-71.9,32.2-71.9,71.9s32.2,71.9,71.9,71.9c39.7,0,71.9-32.2,71.9-71.9
		S465.9,408.6,426.1,408.6z M392.6,512.2v-49l17.5-18.5h37.1v39.2c-0.9-0.1-1.8-0.2-2.7-0.2c-0.5,0-1,0-1.5,0.1v-34.8h-30.2v15.9
		h-15.9V508h31.5c0.7,1.5,1.5,2.9,2.6,4.2H392.6z M401.9,490.8v-4.8h33.7c-2,1.2-3.8,2.8-5.2,4.8H401.9z M427.8,495.9
		c-0.5,1.5-0.7,3.1-0.8,4.8h-25.1v-4.8H427.8z M401.9,481.4v-4.8h35.7v4.8H401.9z M444.5,516.4c-8.4,0-15.2-6.8-15.2-15.2
		s6.8-15.2,15.2-15.2c8.4,0,15.2,6.8,15.2,15.2S452.9,516.4,444.5,516.4z"/>
	<polygon fill="#DD9D33" points="408.5,452.4 400.8,460.6 408.5,460.6 	"/>
</g>
<path fill="#DD9D33" d="M72,0C32.2,0,0,32.2,0,72c0,39.8,32.2,72,72,72c39.8,0,72-32.2,72-72C144,32.2,111.8,0,72,0z M64.6,56.4
	c2-0.6,4.4-1,3.9-4.4c-1.3-1.2-1.7-3.6-1.7-3.6s-1.7-0.9-1.9-2.5c-0.1-1.3,0.5-1.8,0.5-1.8s0-0.1,0-1.6c0-3.6,3-6.4,6.7-6.4
	c3.7,0,6.7,2.8,6.7,6.4c0,1.5,0,1.6,0,1.6s0.7,0.6,0.5,1.8c-0.2,1.7-1.9,2.5-1.9,2.5s-0.4,2.4-1.7,3.6c-0.5,3.4,1.9,3.7,3.9,4.4
	c3.2,1,6,1.2,6,5.4c0,0.9-4.4,1.7-11.6,1.8L73,57.7l0.5-0.7c0.1-0.1,0.1-0.2,0-0.3l-1.2-1.3c-0.1-0.1-0.3-0.1-0.4,0l-1.2,1.3
	c-0.1,0.1-0.1,0.2,0,0.3l0.5,0.7l-0.9,5.9c-7.2-0.1-11.6-0.9-11.6-1.8C58.6,57.6,61.4,57.4,64.6,56.4z M43.3,75.6
	c0-1,0.8-1.8,1.8-1.8h25.1v-5.4c0-1,0.8-1.8,1.8-1.8c1,0,1.8,0.8,1.8,1.8v5.4h25.1c1,0,1.8,0.8,1.8,1.8v9c0,1-0.8,1.8-1.8,1.8
	s-1.8-0.8-1.8-1.8v-7.2H73.8v7.2c0,1-0.8,1.8-1.8,1.8c-1,0-1.8-0.8-1.8-1.8v-7.2H46.9v7.2c0,1-0.8,1.8-1.8,1.8c-1,0-1.8-0.8-1.8-1.8
	V75.6z M46.3,107.9l-0.6-3.9l0.3-0.5c0-0.1,0-0.2,0-0.2l-0.8-0.9c-0.1-0.1-0.2-0.1-0.3,0l-0.8,0.9c-0.1,0.1-0.1,0.2,0,0.2l0.3,0.5
	l-0.6,3.9c-4.8-0.1-7.7-0.6-7.7-1.2c0-2.8,1.9-2.9,4-3.6c1.3-0.4,2.9-0.7,2.6-2.9c-0.9-0.8-1.2-2.4-1.2-2.4s-1.1-0.6-1.3-1.7
	c-0.1-0.8,0.3-1.2,0.3-1.2s0-0.1,0-1.1c0-2.4,2-4.2,4.5-4.2s4.5,1.9,4.5,4.2c0,1,0,1.1,0,1.1s0.4,0.4,0.3,1.2
	c-0.1,1.1-1.3,1.7-1.3,1.7s-0.3,1.6-1.2,2.4c-0.3,2.2,1.3,2.5,2.6,2.9c2.1,0.7,4,0.8,4,3.6C54.1,107.2,51.2,107.8,46.3,107.9z
	 M73.3,107.9l-0.6-3.9l0.3-0.5c0-0.1,0-0.2,0-0.2l-0.8-0.9c-0.1-0.1-0.2-0.1-0.3,0l-0.8,0.9c-0.1,0.1-0.1,0.2,0,0.2l0.3,0.5
	l-0.6,3.9c-4.8-0.1-7.7-0.6-7.7-1.2c0-2.8,1.9-2.9,4-3.6c1.3-0.4,2.9-0.7,2.6-2.9c-0.9-0.8-1.2-2.4-1.2-2.4s-1.1-0.6-1.3-1.7
	c-0.1-0.8,0.3-1.2,0.3-1.2s0-0.1,0-1.1c0-2.4,2-4.2,4.5-4.2c2.4,0,4.5,1.9,4.5,4.2c0,1,0,1.1,0,1.1s0.4,0.4,0.3,1.2
	c-0.1,1.1-1.3,1.7-1.3,1.7s-0.3,1.6-1.2,2.4c-0.3,2.2,1.3,2.5,2.6,2.9c2.1,0.7,4,0.8,4,3.6C81,107.2,78.1,107.8,73.3,107.9z
	 M100.2,107.9l-0.6-3.9l0.3-0.5c0-0.1,0-0.2,0-0.2l-0.8-0.9c-0.1-0.1-0.2-0.1-0.3,0l-0.8,0.9c-0.1,0.1-0.1,0.2,0,0.2l0.3,0.5
	l-0.6,3.9c-4.8-0.1-7.7-0.6-7.7-1.2c0-2.8,1.9-2.9,4-3.6c1.3-0.4,2.9-0.7,2.6-2.9c-0.9-0.8-1.2-2.4-1.2-2.4s-1.1-0.6-1.3-1.7
	c-0.1-0.8,0.3-1.2,0.3-1.2s0-0.1,0-1.1c0-2.4,2-4.2,4.5-4.2s4.5,1.9,4.5,4.2c0,1,0,1.1,0,1.1s0.4,0.4,0.3,1.2
	c-0.1,1.1-1.3,1.7-1.3,1.7s-0.3,1.6-1.2,2.4c-0.3,2.2,1.3,2.5,2.6,2.9c2.1,0.7,4,0.8,4,3.6C107.9,107.2,105,107.8,100.2,107.9z"/>
</svg>
