<?xml version="1.0" encoding="utf-8"?>
<!-- Generator: Adobe Illustrator 18.1.1, SVG Export Plug-In . SVG Version: 6.00 Build 0)  -->
<svg version="1.1" id="Layer_1" xmlns="http://www.w3.org/2000/svg" xmlns:xlink="http://www.w3.org/1999/xlink" x="0px" y="0px"
	 viewBox="0 0 144 144" enable-background="new 0 0 144 144" xml:space="preserve">
<g>
	<polygon fill="#DD9D33" points="441.2,504.1 436.2,499.2 433.1,502.4 441.2,510.5 455.1,496.6 451.9,493.4 	"/>
	<path fill="#DD9D33" d="M426.1,408.6c-39.7,0-71.9,32.2-71.9,71.9s32.2,71.9,71.9,71.9c39.7,0,71.9-32.2,71.9-71.9
		S465.9,408.6,426.1,408.6z M392.6,512.2v-49l17.5-18.5h37.1v39.2c-0.9-0.1-1.8-0.2-2.7-0.2c-0.5,0-1,0-1.5,0.1v-34.8h-30.2v15.9
		h-15.9V508h31.5c0.7,1.5,1.5,2.9,2.6,4.2H392.6z M401.9,490.8v-4.8h33.7c-2,1.2-3.8,2.8-5.2,4.8H401.9z M427.8,495.9
		c-0.5,1.5-0.7,3.1-0.8,4.8h-25.1v-4.8H427.8z M401.9,481.4v-4.8h35.7v4.8H401.9z M444.5,516.4c-8.4,0-15.2-6.8-15.2-15.2
		s6.8-15.2,15.2-15.2c8.4,0,15.2,6.8,15.2,15.2S452.9,516.4,444.5,516.4z"/>
	<polygon fill="#DD9D33" points="408.5,452.4 400.8,460.6 408.5,460.6 	"/>
</g>
<path fill="#363636" d="M72,0C32.2,0,0,32.2,0,72s32.2,72,72,72s72-32.2,72-72S111.8,0,72,0z M48.7,58.8c0-2.4,1.6-4.5,3.8-5.2v-0.7
	c0-4.6,1.5-8.4,4.4-11.3c5.7-5.6,14.8-5.5,15.1-5.5c0.3,0,9.4-0.1,15.1,5.4c2.9,2.9,4.4,6.7,4.4,11.3v0.7c2.2,0.7,3.8,2.8,3.8,5.2
	v5.3c0,3-2.5,5.5-5.5,5.5h-1.2V55.2c0,0,0,0,0-0.1v-2.3c0-3.8-1.2-6.9-3.5-9.2c-4.8-4.7-12.9-4.6-13-4.6c-0.1,0-8.3-0.1-13.1,4.6
	c-2.3,2.3-3.5,5.4-3.5,9.2V55c0,0,0,0.1,0,0.1v14.4h-1.2c-3,0-5.5-2.5-5.5-5.5V58.8z M99.2,105c0,0-12.4,2.8-27.2,2.8
	c-14.8,0-27.2-2.8-27.2-2.8c-4-0.8-3.8-2.9-3.8-2.9C41.7,89.3,53.2,84,53.2,84c2.8-1.3,7.7-3.8,11-5.5c-1.7-1.9-3-4.3-3.8-6.5
	c2.2,1.5,4.6,2.4,6.6,2.9c0.3,0.7,1,1.2,1.8,1.2h5.1c1.1,0,1.9-0.9,1.9-2c0-1.1-0.9-2-1.9-2h-5.1c-0.5,0-1,0.2-1.4,0.6
	c-2.8-0.7-6.2-2.1-8.4-5c-0.3-1.2-0.4-2-0.5-2.3c-0.9-4.8-0.4-10.8-0.4-10.8C59,42.9,70.8,42.8,71.9,42.8c0.1,0,0.1,0,0.1,0
	s0,0,0.1,0c1.2,0,12.9,0.2,13.7,11.8c0,0,0.4,6-0.4,10.8c-0.2,1.1-1.4,8.5-5.6,13.1c3.3,1.7,8.3,4.2,11,5.5c0,0,11.5,5.3,12.2,18.1
	C103,102.1,103.2,104.2,99.2,105z"/>
</svg>
